<svg data-v-1084b650="" xmlns="http://www.w3.org/2000/svg" viewBox="0 0 300 300"><!----> <!----> <rect data-v-1084b650="" fill="#6cc566" x="0" y="0" width="300px" height="300px" class="logo-background-square"></rect> <!----> <!----> <g data-v-1084b650="" id="08a8e8f6-13ed-60c7-4e72-af877a50f81e" fill="#fff" stroke="none" transform="matrix(1,0,0,1,0.300018310546875,0.149993896484375)"><svg xmlns="http://www.w3.org/2000/svg" viewBox="0 0 100 100"><path d="M27.3 40.6h-4.6c-5.2 0-9.4 4.2-9.4 9.4s4.2 9.4 9.4 9.4h4.6L24 62.7c-1.8 1.8-2.7 4.1-2.7 6.6s1 4.9 2.7 6.6c1.8 1.8 4.1 2.7 6.6 2.7s4.9-1 6.6-2.7l3.3-3.3v4.6c0 5.2 4.2 9.4 9.4 9.4s9.4-4.2 9.4-9.4v-4.6l3.3 3.3c1.8 1.8 4.1 2.7 6.6 2.7s4.9-1 6.6-2.7c1.8-1.8 2.7-4.1 2.7-6.6s-1-4.9-2.7-6.6l-3.3-3.3h4.6c5.2 0 9.4-4.2 9.4-9.4s-4.2-9.4-9.4-9.4h-4.6l3.3-3.3c3.7-3.7 3.7-9.6 0-13.3-1.8-1.8-4.1-2.7-6.6-2.7s-4.9 1-6.6 2.7l-3.3 3.3v-4.6c0-5.2-4.2-9.4-9.4-9.4s-9.4 4.2-9.4 9.4v4.6L37.2 24c-1.8-1.8-4.1-2.7-6.6-2.7s-4.9 1-6.6 2.7c-3.7 3.7-3.7 9.6 0 13.3l3.3 3.3zm-4.6 15.1c-3.1 0-5.7-2.5-5.7-5.7 0-3.1 2.5-5.7 5.7-5.7H31l5.7 5.7-5.7 5.7h-8.3zm25-11.4h4.7l3.3 3.3v4.7l-3.3 3.3h-4.7l-3.3-3.3v-4.7l3.3-3.3zm-7.1 9.6v1.8h-4.3l3-3 1.3 1.2zm5.5 5.5l1.3 1.3-3 3v-4.3h1.7zm7.8 0h1.8v4.3l-3-3 1.2-1.3zm5.5-5.5l1.3-1.3 3 3h-4.3v-1.7zm0-7.8v-1.8h4.3l-3 3-1.3-1.2zm-5.5-5.5l-1.3-1.3 3-3v4.3h-1.7zm-7.8 0h-1.8v-4.3l3 3-1.2 1.3zm-5.5 5.5l-1.3 1.3-3-3h4.3v1.7zm-5.9 27.2c-1.1 1.1-2.5 1.6-4 1.6s-2.9-.6-4-1.6c-1.1-1.1-1.6-2.5-1.6-4s.6-2.9 1.6-4l5.9-5.9h8v8l-5.9 5.9zm21 4c0 3.1-2.5 5.7-5.7 5.7s-5.7-2.5-5.7-5.7V69l5.7-5.7 5.7 5.7v8.3zm17.6-12c1.1 1.1 1.6 2.5 1.6 4s-.6 2.9-1.6 4-2.5 1.6-4 1.6-2.9-.6-4-1.6l-5.9-5.9v-8h8l5.9 5.9zm4-21c3.1 0 5.7 2.5 5.7 5.7 0 3.1-2.5 5.7-5.7 5.7H69L63.3 50l5.7-5.7h8.3zm-12-17.6c1.1-1.1 2.5-1.6 4-1.6s2.9.6 4 1.6c2.2 2.2 2.2 5.8 0 8l-5.9 5.9h-8v-8l5.9-5.9zm-21-4c0-3.1 2.5-5.7 5.7-5.7s5.7 2.5 5.7 5.7V31L50 36.7 44.3 31v-8.3zm-17.6 4c1.1-1.1 2.5-1.6 4-1.6s2.9.6 4 1.6l5.9 5.9v8h-8l-5.9-5.9c-2.2-2.2-2.2-5.8 0-8z"></path></svg></g></svg>