<svg width="38" height="35" viewBox="0 0 38 35" fill="none" xmlns="http://www.w3.org/2000/svg">
<path d="M15.8599 28.3469C14.0256 28.3469 12.5333 29.8392 12.5333 31.6734C12.5333 33.5077 14.0256 35 15.8599 35C17.6941 35 19.1864 33.5077 19.1864 31.6734C19.1863 29.8392 17.694 28.3469 15.8599 28.3469ZM15.8599 33.1425C15.0498 33.1425 14.3907 32.4833 14.3907 31.6733C14.3907 30.8632 15.0498 30.2041 15.8599 30.2041C16.6699 30.2041 17.329 30.8633 17.329 31.6733C17.329 32.4835 16.6699 33.1425 15.8599 33.1425Z" fill="#6CC566"/>
<path d="M27.5281 28.3469C25.6939 28.3469 24.2016 29.8392 24.2016 31.6734C24.2016 33.5077 25.6939 35 27.5281 35C29.3624 35 30.8547 33.5077 30.8547 31.6734C30.8546 29.8392 29.3623 28.3469 27.5281 28.3469ZM27.5281 33.1425C26.718 33.1425 26.059 32.4833 26.059 31.6733C26.059 30.8632 26.7181 30.2041 27.5281 30.2041C28.3383 30.2041 28.9973 30.8633 28.9973 31.6733C28.9973 32.4835 28.3382 33.1425 27.5281 33.1425Z" fill="#6CC566"/>
<path d="M28.3473 10.8331H15.0387C14.5258 10.8331 14.1101 11.2489 14.1101 11.7618C14.1101 12.2747 14.5259 12.6905 15.0387 12.6905H28.3473C28.8602 12.6905 29.276 12.2747 29.276 11.7618C29.276 11.2488 28.8602 10.8331 28.3473 10.8331Z" fill="#6CC566"/>
<path d="M27.6228 15.6558H15.763C15.2501 15.6558 14.8343 16.0715 14.8343 16.5844C14.8343 17.0974 15.2501 17.5131 15.763 17.5131H27.6227C28.1356 17.5131 28.5514 17.0974 28.5514 16.5844C28.5514 16.0716 28.1356 15.6558 27.6228 15.6558Z" fill="#6CC566"/>
<path d="M37.4061 6.69531C37.0519 6.26063 36.5271 6.01137 35.9663 6.01137H7.03871L6.45451 3.17538C6.33254 2.58379 5.92903 2.08705 5.3749 1.84644L1.29869 0.0771273C0.8281 -0.127285 0.281202 0.0886517 0.0770851 0.559089C-0.127254 1.02967 0.0886835 1.57665 0.559047 1.78076L4.63533 3.55015L9.12887 25.3626C9.30587 26.2216 10.0709 26.8451 10.948 26.8451H33.1967C33.7097 26.8451 34.1254 26.4294 34.1254 25.9165C34.1254 25.4035 33.7097 24.9878 33.1967 24.9878H10.9481L10.4015 22.3345H33.3687C34.2458 22.3345 35.0109 21.711 35.1878 20.8519L37.7855 8.24329C37.8986 7.69425 37.7603 7.12992 37.4061 6.69531ZM33.3687 20.4772H10.0189L7.42139 7.86867L35.9662 7.86875L33.3687 20.4772Z" fill="#6CC566"/>
</svg>
