<svg width="43" height="32" viewBox="0 0 43 32" fill="none" xmlns="http://www.w3.org/2000/svg">
<path d="M34.4691 12.3073C35.0349 12.3073 35.4936 11.8486 35.4936 11.2828C35.4936 10.717 35.0349 10.2583 34.4691 10.2583C33.9033 10.2583 33.4446 10.717 33.4446 11.2828C33.4446 11.8486 33.9033 12.3073 34.4691 12.3073Z" fill="#6CC566"/>
<path d="M27.8895 12.3073C28.4554 12.3073 28.914 11.8486 28.914 11.2828C28.914 10.717 28.4554 10.2583 27.8895 10.2583C27.3237 10.2583 26.8651 10.717 26.8651 11.2828C26.8651 11.8486 27.3237 12.3073 27.8895 12.3073Z" fill="#6CC566"/>
<path d="M21.3095 12.3073C21.8753 12.3073 22.334 11.8486 22.334 11.2828C22.334 10.717 21.8753 10.2583 21.3095 10.2583C20.7437 10.2583 20.285 10.717 20.285 11.2828C20.285 11.8486 20.7437 12.3073 21.3095 12.3073Z" fill="#6CC566"/>
<path d="M14.73 12.3073C15.2958 12.3073 15.7545 11.8486 15.7545 11.2828C15.7545 10.717 15.2958 10.2583 14.73 10.2583C14.1642 10.2583 13.7055 10.717 13.7055 11.2828C13.7055 11.8486 14.1642 12.3073 14.73 12.3073Z" fill="#6CC566"/>
<path d="M8.14996 12.3073C8.71577 12.3073 9.17445 11.8486 9.17445 11.2828C9.17445 10.717 8.71577 10.2583 8.14996 10.2583C7.58415 10.2583 7.12547 10.717 7.12547 11.2828C7.12547 11.8486 7.58415 12.3073 8.14996 12.3073Z" fill="#6CC566"/>
<path d="M34.4691 18.8869C35.0349 18.8869 35.4936 18.4282 35.4936 17.8624C35.4936 17.2966 35.0349 16.8379 34.4691 16.8379C33.9033 16.8379 33.4446 17.2966 33.4446 17.8624C33.4446 18.4282 33.9033 18.8869 34.4691 18.8869Z" fill="#6CC566"/>
<path d="M27.8895 18.8869C28.4554 18.8869 28.914 18.4282 28.914 17.8624C28.914 17.2966 28.4554 16.8379 27.8895 16.8379C27.3237 16.8379 26.8651 17.2966 26.8651 17.8624C26.8651 18.4282 27.3237 18.8869 27.8895 18.8869Z" fill="#6CC566"/>
<path d="M21.3095 18.8869C21.8753 18.8869 22.334 18.4282 22.334 17.8624C22.334 17.2966 21.8753 16.8379 21.3095 16.8379C20.7437 16.8379 20.285 17.2966 20.285 17.8624C20.285 18.4282 20.7437 18.8869 21.3095 18.8869Z" fill="#6CC566"/>
<path d="M8.14996 18.8869C8.71577 18.8869 9.17445 18.4282 9.17445 17.8624C9.17445 17.2966 8.71577 16.8379 8.14996 16.8379C7.58415 16.8379 7.12547 17.2966 7.12547 17.8624C7.12547 18.4282 7.58415 18.8869 8.14996 18.8869Z" fill="#6CC566"/>
<path d="M34.4691 25.4663C35.0349 25.4663 35.4936 25.0077 35.4936 24.4418C35.4936 23.876 35.0349 23.4174 34.4691 23.4174C33.9033 23.4174 33.4446 23.876 33.4446 24.4418C33.4446 25.0077 33.9033 25.4663 34.4691 25.4663Z" fill="#6CC566"/>
<path d="M27.8895 25.4663C28.4554 25.4663 28.914 25.0077 28.914 24.4418C28.914 23.876 28.4554 23.4174 27.8895 23.4174C27.3237 23.4174 26.8651 23.876 26.8651 24.4418C26.8651 25.0077 27.3237 25.4663 27.8895 25.4663Z" fill="#6CC566"/>
<path d="M21.3095 25.4663C21.8753 25.4663 22.334 25.0077 22.334 24.4418C22.334 23.876 21.8753 23.4174 21.3095 23.4174C20.7437 23.4174 20.285 23.876 20.285 24.4418C20.285 25.0077 20.7437 25.4663 21.3095 25.4663Z" fill="#6CC566"/>
<path d="M14.73 25.4663C15.2958 25.4663 15.7545 25.0077 15.7545 24.4418C15.7545 23.876 15.2958 23.4174 14.73 23.4174C14.1642 23.4174 13.7055 23.876 13.7055 24.4418C13.7055 25.0077 14.1642 25.4663 14.73 25.4663Z" fill="#6CC566"/>
<path d="M8.14996 25.4663C8.71577 25.4663 9.17445 25.0077 9.17445 24.4418C9.17445 23.876 8.71577 23.4174 8.14996 23.4174C7.58415 23.4174 7.12547 23.876 7.12547 24.4418C7.12547 25.0077 7.58415 25.4663 8.14996 25.4663Z" fill="#6CC566"/>
<path d="M17.822 13.89H11.6382C11.1518 13.89 10.7576 14.2842 10.7576 14.7707V20.9545C10.7576 21.4409 11.1518 21.8351 11.6382 21.8351H17.822C18.3084 21.8351 18.7026 21.4409 18.7026 20.9545V14.7708C18.7026 14.2843 18.3083 13.89 17.822 13.89ZM16.9413 20.0737H12.5189V15.6514H16.9412V20.0737H16.9413Z" fill="#6CC566"/>
<path d="M39.6822 2.10883H33.2139V0.978543C33.2139 0.438081 32.7758 0 32.2353 0C31.695 0 31.2568 0.438164 31.2568 0.978543V2.10883H25.9295V0.978543C25.9295 0.438081 25.4913 0 24.9509 0C24.4105 0 23.9724 0.438164 23.9724 0.978543V2.10883H18.6453V0.978543C18.6453 0.438081 18.2072 0 17.6667 0C17.1262 0 16.6882 0.438164 16.6882 0.978543V2.10883H11.3609V0.978543C11.3609 0.438081 10.9228 0 10.3823 0C9.84186 0 9.40378 0.438164 9.40378 0.978543V2.10883H2.93538C1.3169 2.10883 0 3.42565 0 5.04429V29.0645C0 30.6831 1.3169 32 2.93555 32H39.6823C41.3009 32 42.6178 30.6831 42.6178 29.0645V5.04429C42.6177 3.42565 41.3007 2.10883 39.6822 2.10883ZM39.6822 30.0431H2.93555C2.396 30.0431 1.957 29.6041 1.957 29.0645V5.04429C1.957 4.50474 2.396 4.06575 2.93555 4.06575H9.40387V5.19595C9.40387 5.73625 9.84195 6.17449 10.3824 6.17449C10.9229 6.17449 11.361 5.73633 11.361 5.19595V4.06575H16.6883V5.19595C16.6883 5.73625 17.1263 6.17449 17.6668 6.17449C18.2073 6.17449 18.6453 5.73633 18.6453 5.19595V4.06575H23.9725V5.19595C23.9725 5.73625 24.4106 6.17449 24.951 6.17449C25.4913 6.17449 25.9296 5.73633 25.9296 5.19595V4.06575H31.2569V5.19595C31.2569 5.73625 31.695 6.17449 32.2354 6.17449C32.7759 6.17449 33.2139 5.73633 33.2139 5.19595V4.06575H39.6823C40.2218 4.06575 40.6608 4.50474 40.6608 5.04429V29.0645H40.6609C40.6607 29.6041 40.2217 30.0431 39.6822 30.0431Z" fill="#6CC566"/>
</svg>
